<svg xmlns="http://www.w3.org/2000/svg" xmlns:xlink="http://www.w3.org/1999/xlink" width="105.081" height="119.456" viewBox="0 0 105.081 119.456"><defs><style>.a{fill:#fff;}.b{fill:url(#a);}.c{fill:url(#b);}.d{fill:url(#c);}.e{fill:url(#d);}.f{fill:url(#e);}.g{fill:#6900ff;}.h{fill:#14002e;}.i{opacity:0.232;mix-blend-mode:screen;fill:url(#f);}.i,.j{isolation:isolate;}.k{fill:#371349;}.l{opacity:0.67;}.m{fill:url(#g);}.n{opacity:0.53;}.o{fill:#ed0039;}.p{fill:#fcec2b;}.q{fill:#7a27fc;opacity:0.853;}.r{fill:#54fcdf;opacity:0.674;}.s{fill:#8f3faf;}.t{fill:#f9fcf9;}.u{fill:#f6f8f6;}</style><linearGradient id="a" x1="0.059" y1="0.661" x2="1.056" y2="0.384" gradientUnits="objectBoundingBox"><stop offset="0" stop-color="#c4c4c4"/><stop offset="0.23" stop-color="#cbcbcb"/><stop offset="0.567" stop-color="#dedede"/><stop offset="0.968" stop-color="#fefefe"/><stop offset="0.973" stop-color="#fff"/></linearGradient><linearGradient id="b" x1="0.5" x2="0.5" y2="1" gradientUnits="objectBoundingBox"><stop offset="0" stop-color="#14002e"/><stop offset="1" stop-color="#6900ff"/></linearGradient><linearGradient id="c" x1="0.5" x2="0.5" y2="1" gradientUnits="objectBoundingBox"><stop offset="0" stop-color="#d9d9d9"/><stop offset="1" stop-color="#f6f8f6"/></linearGradient><linearGradient id="d" x1="591.439" y1="-1056.597" x2="3718.945" y2="-6650.836" xlink:href="#a"/><linearGradient id="e" x1="1.021" y1="0.084" x2="-0.162" y2="0.878" gradientUnits="objectBoundingBox"><stop offset="0" stop-color="#d9d9d9"/><stop offset="0.966" stop-color="#b2b2b2" stop-opacity="0"/><stop offset="1" stop-color="#fff" stop-opacity="0"/></linearGradient><linearGradient id="f" x1="1.303" y1="-0.084" x2="0.067" y2="0.803" gradientUnits="objectBoundingBox"><stop offset="0" stop-color="#e5e5e5"/><stop offset="0.966" stop-color="#e5e5e5" stop-opacity="0"/></linearGradient><linearGradient id="g" x1="0.5" x2="0.5" y2="1" gradientUnits="objectBoundingBox"><stop offset="0" stop-color="#d31197"/><stop offset="1" stop-color="#6900ff"/></linearGradient></defs><g transform="translate(0)"><g transform="translate(0 4.429)"><path class="a" d="M1975,159.683a2.189,2.189,0,0,1-1.094-.293l-40.167-23.19a2.187,2.187,0,0,1,0-3.789l55.75-32.189a2.185,2.185,0,0,1,2.188,0l40.169,23.191a2.188,2.188,0,0,1,0,3.789L1976.1,159.39A2.19,2.19,0,0,1,1975,159.683Z" transform="translate(-1927.862 -47.275)"/><path class="b" d="M2026.172,220.8l-54.552,31.5a3.222,3.222,0,0,1-3.221,0l-39.3-22.692a3.192,3.192,0,0,1-1.611-2.79v2.947a3.191,3.191,0,0,0,1.611,2.789l39.3,22.692a3.222,3.222,0,0,0,3.221,0l54.552-31.5a3.181,3.181,0,0,0,1.6-2.645h0v-.03c0-.076,0-.151,0-.227v-2.721A3.182,3.182,0,0,1,2026.172,220.8Zm1.6-2.937c0,.012,0,.023,0,.034v-.035Z" transform="translate(-1922.697 -140.653)"/><path class="c" d="M1919.451-60.637a2.2,2.2,0,0,1-2.192-2.193v-46.381a2.193,2.193,0,0,1,1.094-1.895l55.751-32.188a2.156,2.156,0,0,1,1.089-.3,2.2,2.2,0,0,1,2.192,2.193v46.382a2.193,2.193,0,0,1-1.094,1.895L1920.54-60.935A2.153,2.153,0,0,1,1919.451-60.637Z" transform="translate(-1915.764 144.157)"/><g transform="translate(0 0)"><path class="d" d="M1904.248-72.891V-118.26a3.22,3.22,0,0,1,1.61-2.789l54.535-31.486a3.172,3.172,0,0,1,2.752-.217l0,0-1.291-.686a3.2,3.2,0,0,0-3.54-.212l-54.535,31.486a3.221,3.221,0,0,0-1.61,2.789v45.37a3.178,3.178,0,0,0,1.326,2.6v0l.032.017a3.923,3.923,0,0,0,2.618.847A2.172,2.172,0,0,1,1904.248-72.891Z" transform="translate(-1902.172 154.088)"/><path class="e" d="M1921.721,248.244l.013.007v0Z" transform="translate(-1919.272 -163.866)"/></g><path class="f" d="M1969.521,155.023l47.873-27.64a8.1,8.1,0,0,1,7.287.3l14.411,8.321a3.267,3.267,0,0,1,1.748,2.058c.192-.922-.405-1.945-1.748-2.72l-14.411-8.321a8.1,8.1,0,0,0-7.287-.3l-47.873,27.639a2.051,2.051,0,0,0-1.226,2.149A2.33,2.33,0,0,1,1969.521,155.023Z" transform="translate(-1955.86 -67.765)"/><path class="g" d="M2037.327,157.835l-2.539-1.466-2.539,1.466,2.539,1.466Zm-4.99,2.881-2.538-1.466-2.539,1.466,2.539,1.466Zm9.981-5.763-2.539-1.466-2.539,1.466,2.539,1.466Zm14.5,1.534,5.287-3.052-2.539-1.466-5.287,3.052Zm1-5.528-2.539-1.466-2.539,1.466,2.539,1.466Zm-10.505,1.112-2.539-1.466-2.539,1.466,2.539,1.466ZM2027.346,163.6l-2.539-1.466-2.539,1.466,2.539,1.466Zm26.063-8.074-43.751,25.26,2.539,1.466,43.751-25.26Zm-31.053,10.956-2.539-1.466-2.539,1.466,2.539,1.466Zm29.052-14.752-46.038,26.58,2.539,1.466,46.038-26.58Zm12.446,2.719-49.906,28.812,2.539,1.466,49.906-28.812Zm-51.478,17.8-2.539-1.466-2.539,1.466,2.539,1.466Zm4.991-2.881-2.539-1.466-2.539,1.466,2.539,1.466Z" transform="translate(-1985.027 -86.239)"/><path class="g" d="M2200.07,248.732l-14.917,8.613a4.048,4.048,0,0,1-3.627-.15l-3.277-1.892c-1.069-.617-1.187-1.56-.26-2.094l14.918-8.613a4.048,4.048,0,0,1,3.627.15l3.277,1.892C2200.879,247.255,2201,248.2,2200.07,248.732Z" transform="translate(-2120.232 -160.715)"/><path class="h" d="M2178.025,253.647l14.918-8.613a4.049,4.049,0,0,1,3.627.15l3.277,1.892a1.657,1.657,0,0,1,.847.968c.132-.474-.154-1.01-.847-1.41l-3.277-1.892a4.047,4.047,0,0,0-3.627-.15l-14.918,8.613a1,1,0,0,0-.586,1.126A1.175,1.175,0,0,1,2178.025,253.647Z" transform="translate(-2120.27 -160.711)"/><path class="i" d="M1917.259-62.826V-90.1l8.428-25.232,14.985-8.652L1919.511-60.64c-.02,0-.039.008-.059.008A2.2,2.2,0,0,1,1917.259-62.826Zm29.129-64.462,3.526-2.036L1928.626-65.6l-3.526,2.036Zm8.764-5.06L1974.1-143.29a2.156,2.156,0,0,1,1.089-.3c.024,0,.049.006.074.007l-21.13,63.252-20.274,11.706Zm22.234-5.87v17.038L1966.033-87.2l-7.052,4.071Z" transform="translate(-1915.764 144.153)"/></g><g class="j" transform="translate(9.867 23.862)"><path class="k" d="M1588.589,622.043l3.09-1.828v3.3l-3.09,1.828Z" transform="translate(-1588.589 -596.658)"/><path class="k" d="M1588.589,604.462l3.09-1.828v3.3l-3.09,1.828Z" transform="translate(-1588.589 -572.323)"/><path class="k" d="M1588.589,584.624l3.09-1.828v3.3l-3.09,1.828Z" transform="translate(-1588.589 -544.864)"/><path class="k" d="M1588.589,564.787l3.09-1.828v3.3l-3.09,1.828Z" transform="translate(-1588.589 -517.406)"/><path class="k" d="M1604.819,651.152l39.81-21.92v3.3l-39.81,21.92Z" transform="translate(-1598.584 -629.232)"/><path class="k" d="M1604.819,633.571l39.81-21.921v3.3l-39.81,21.92Z" transform="translate(-1598.584 -604.896)"/><path class="k" d="M1604.819,613.733l39.81-21.92v3.3l-39.81,21.92Z" transform="translate(-1598.584 -577.437)"/><path class="k" d="M1604.819,593.9l39.81-21.92v3.3l-39.81,21.92Z" transform="translate(-1598.584 -549.979)"/></g><g class="l" transform="translate(73.881 23.577)"><g transform="translate(0.057)"><path class="m" d="M1744.569,406l0,1.358a1.04,1.04,0,0,1-1.562.9l-6.4-3.716a1.041,1.041,0,0,1-.518-.9l0-1.358a1.04,1.04,0,0,1,1.562-.9l6.4,3.716A1.039,1.039,0,0,1,1744.569,406Z" transform="translate(-1736.081 -401.243)"/></g><g transform="translate(0.038 6.756)"><path class="m" d="M1764.8,435.278l0,1.361a1.04,1.04,0,0,1-1.56.9l-26.683-15.406a1.041,1.041,0,0,1-.52-.9l0-1.361a1.04,1.04,0,0,1,1.56-.9l26.683,15.406A1.041,1.041,0,0,1,1764.8,435.278Z" transform="translate(-1736.031 -418.828)"/></g><g class="n" transform="translate(0 20.276)"><path class="m" d="M1753.7,464.119l0,1.361a1.04,1.04,0,0,1-1.56.9l-15.682-9.054a1.04,1.04,0,0,1-.52-.9l0-1.36a1.04,1.04,0,0,1,1.56-.9l15.683,9.054A1.04,1.04,0,0,1,1753.7,464.119Z" transform="translate(-1735.932 -454.02)"/></g><g transform="translate(0.019 13.516)"><path class="m" d="M1760.612,450.485l0,1.361a1.04,1.04,0,0,1-1.56.9L1736.5,439.727a1.04,1.04,0,0,1-.52-.9l0-1.361a1.04,1.04,0,0,1,1.56-.9l22.546,13.017A1.041,1.041,0,0,1,1760.612,450.485Z" transform="translate(-1735.982 -436.424)"/></g></g><g transform="translate(9.78)"><path class="o" d="M1635.81,20.33l-20.33,11.737V11.737L1635.81,0Z" transform="translate(-1589.976)"/><path class="p" d="M1495.81,236.33l-20.33,11.737v-20.33L1495.81,216Z" transform="translate(-1472.212 -176.36)"/><path class="q" d="M1696.822,258.041l-13.342,7.7V252.4l13.342-7.7Z" transform="translate(-1649.842 -208.502)"/><path class="r" d="M1501.821,112.041l-13.341,7.7V106.4l13.341-7.7Z" transform="translate(-1488.48 -77.447)"/></g></g><g transform="translate(38.073 10.753)"><path class="a" d="M661.613,249.65h0a.633.633,0,0,1-.949-.548v-6.781a.633.633,0,0,1,.316-.548h0a.633.633,0,0,1,.949.548V249.1A.632.632,0,0,1,661.613,249.65Z" transform="translate(-660.664 -233.986)"/><path class="a" d="M667.951,249.907h0a.633.633,0,0,1-.949-.548v-5.107a.632.632,0,0,1,.316-.548h0a.633.633,0,0,1,.949.548v5.107A.632.632,0,0,1,667.951,249.907Z" transform="translate(-665.104 -235.339)"/><path class="a" d="M674.288,248.758h0a.633.633,0,0,1-.949-.548v-4.033a.633.633,0,0,1,.317-.548h0a.632.632,0,0,1,.949.548v4.033A.632.632,0,0,1,674.288,248.758Z" transform="translate(-669.543 -235.286)"/><path class="a" d="M680.626,251.524h0a.633.633,0,0,1-.949-.548v-1.286a.633.633,0,0,1,.316-.548h0a.633.633,0,0,1,.949.548v1.286A.632.632,0,0,1,680.626,251.524Z" transform="translate(-673.983 -239.148)"/><path class="a" d="M687.14,250.3h0a.633.633,0,0,1-.949-.548v-.2a.632.632,0,0,1,.316-.548h0a.633.633,0,0,1,.949.548v.2A.633.633,0,0,1,687.14,250.3Z" transform="translate(-678.546 -239.052)"/><path class="a" d="M693.478,239.1h0a.632.632,0,0,1-.949-.548V235.12a.633.633,0,0,1,.316-.548h0a.633.633,0,0,1,.949.548v3.428A.633.633,0,0,1,693.478,239.1Z" transform="translate(-682.985 -228.942)"/><path class="a" d="M699.815,241.154h0a.633.633,0,0,1-.949-.548v-.983a.633.633,0,0,1,.317-.548h0a.633.633,0,0,1,.949.548v.983A.632.632,0,0,1,699.815,241.154Z" transform="translate(-687.424 -232.096)"/><path class="a" d="M706.153,223.935h0a.633.633,0,0,1-.949-.548v-6.781a.633.633,0,0,1,.316-.548h0a.633.633,0,0,1,.949.548v6.781A.633.633,0,0,1,706.153,223.935Z" transform="translate(-691.864 -215.973)"/></g><g transform="translate(16.073 49.753)"><path class="s" d="M661.613,249.65h0a.633.633,0,0,1-.949-.548v-6.781a.633.633,0,0,1,.316-.548h0a.633.633,0,0,1,.949.548V249.1A.632.632,0,0,1,661.613,249.65Z" transform="translate(-660.664 -233.986)"/><path class="s" d="M667.951,249.907h0a.633.633,0,0,1-.949-.548v-5.107a.632.632,0,0,1,.316-.548h0a.633.633,0,0,1,.949.548v5.107A.632.632,0,0,1,667.951,249.907Z" transform="translate(-665.104 -235.339)"/><path class="s" d="M674.288,248.758h0a.633.633,0,0,1-.949-.548v-4.033a.633.633,0,0,1,.317-.548h0a.632.632,0,0,1,.949.548v4.033A.632.632,0,0,1,674.288,248.758Z" transform="translate(-669.543 -235.286)"/><path class="s" d="M680.626,251.524h0a.633.633,0,0,1-.949-.548v-1.286a.633.633,0,0,1,.316-.548h0a.633.633,0,0,1,.949.548v1.286A.632.632,0,0,1,680.626,251.524Z" transform="translate(-673.983 -239.148)"/><path class="s" d="M687.14,250.3h0a.633.633,0,0,1-.949-.548v-.2a.632.632,0,0,1,.316-.548h0a.633.633,0,0,1,.949.548v.2A.633.633,0,0,1,687.14,250.3Z" transform="translate(-678.546 -239.052)"/><path class="s" d="M693.478,239.1h0a.632.632,0,0,1-.949-.548V235.12a.633.633,0,0,1,.316-.548h0a.633.633,0,0,1,.949.548v3.428A.633.633,0,0,1,693.478,239.1Z" transform="translate(-682.985 -228.942)"/><path class="s" d="M699.815,241.154h0a.633.633,0,0,1-.949-.548v-.983a.633.633,0,0,1,.317-.548h0a.633.633,0,0,1,.949.548v.983A.632.632,0,0,1,699.815,241.154Z" transform="translate(-687.424 -232.096)"/><path class="s" d="M706.153,223.935h0a.633.633,0,0,1-.949-.548v-6.781a.633.633,0,0,1,.316-.548h0a.633.633,0,0,1,.949.548v6.781A.633.633,0,0,1,706.153,223.935Z" transform="translate(-691.864 -215.973)"/></g><g transform="translate(45.375 42.236)"><path class="t" d="M661.314,247.139h0a.433.433,0,0,1-.65-.375v-4.643a.434.434,0,0,1,.217-.375h0a.433.433,0,0,1,.65.375v4.643A.433.433,0,0,1,661.314,247.139Z" transform="translate(-660.664 -236.415)"/><path class="t" d="M667.652,247.924h0a.433.433,0,0,1-.65-.375v-3.5a.433.433,0,0,1,.217-.375h0a.433.433,0,0,1,.65.375v3.5A.433.433,0,0,1,667.652,247.924Z" transform="translate(-665.702 -237.95)"/><path class="t" d="M673.989,247.114h0a.433.433,0,0,1-.65-.375v-2.762a.433.433,0,0,1,.217-.375h0a.433.433,0,0,1,.65.375v2.762A.433.433,0,0,1,673.989,247.114Z" transform="translate(-670.74 -237.89)"/><path class="t" d="M680.327,250.746h0a.433.433,0,0,1-.65-.375v-.881a.434.434,0,0,1,.216-.375h0a.433.433,0,0,1,.65.375v.88A.433.433,0,0,1,680.327,250.746Z" transform="translate(-675.778 -242.272)"/><path class="t" d="M686.841,249.866h0a.433.433,0,0,1-.65-.375v-.138a.433.433,0,0,1,.217-.375h0a.433.433,0,0,1,.65.375v.138A.433.433,0,0,1,686.841,249.866Z" transform="translate(-680.956 -242.164)"/><path class="t" d="M693.179,237.643h0a.433.433,0,0,1-.65-.375v-2.347a.433.433,0,0,1,.216-.375h0a.433.433,0,0,1,.65.375v2.347A.433.433,0,0,1,693.179,237.643Z" transform="translate(-685.995 -230.69)"/><path class="t" d="M699.516,240.471h0a.433.433,0,0,1-.65-.375v-.673a.433.433,0,0,1,.217-.375h0a.433.433,0,0,1,.65.375v.673A.433.433,0,0,1,699.516,240.471Z" transform="translate(-691.032 -234.269)"/><path class="t" d="M705.854,221.424h0a.433.433,0,0,1-.65-.375v-4.643a.433.433,0,0,1,.217-.375h0a.433.433,0,0,1,.65.375v4.643A.433.433,0,0,1,705.854,221.424Z" transform="translate(-696.07 -215.973)"/></g><g transform="translate(11.375 27.236)"><path class="u" d="M661.314,247.139h0a.433.433,0,0,1-.65-.375v-4.643a.434.434,0,0,1,.217-.375h0a.433.433,0,0,1,.65.375v4.643A.433.433,0,0,1,661.314,247.139Z" transform="translate(-660.664 -236.415)"/><path class="u" d="M667.652,247.924h0a.433.433,0,0,1-.65-.375v-3.5a.433.433,0,0,1,.217-.375h0a.433.433,0,0,1,.65.375v3.5A.433.433,0,0,1,667.652,247.924Z" transform="translate(-665.702 -237.95)"/><path class="u" d="M673.989,247.114h0a.433.433,0,0,1-.65-.375v-2.762a.433.433,0,0,1,.217-.375h0a.433.433,0,0,1,.65.375v2.762A.433.433,0,0,1,673.989,247.114Z" transform="translate(-670.74 -237.89)"/><path class="u" d="M680.327,250.746h0a.433.433,0,0,1-.65-.375v-.881a.434.434,0,0,1,.216-.375h0a.433.433,0,0,1,.65.375v.88A.433.433,0,0,1,680.327,250.746Z" transform="translate(-675.778 -242.272)"/><path class="u" d="M686.841,249.866h0a.433.433,0,0,1-.65-.375v-.138a.433.433,0,0,1,.217-.375h0a.433.433,0,0,1,.65.375v.138A.433.433,0,0,1,686.841,249.866Z" transform="translate(-680.956 -242.164)"/><path class="u" d="M693.179,237.643h0a.433.433,0,0,1-.65-.375v-2.347a.433.433,0,0,1,.216-.375h0a.433.433,0,0,1,.65.375v2.347A.433.433,0,0,1,693.179,237.643Z" transform="translate(-685.995 -230.69)"/><path class="u" d="M699.516,240.471h0a.433.433,0,0,1-.65-.375v-.673a.433.433,0,0,1,.217-.375h0a.433.433,0,0,1,.65.375v.673A.433.433,0,0,1,699.516,240.471Z" transform="translate(-691.032 -234.269)"/><path class="u" d="M705.854,221.424h0a.433.433,0,0,1-.65-.375v-4.643a.433.433,0,0,1,.217-.375h0a.433.433,0,0,1,.65.375v4.643A.433.433,0,0,1,705.854,221.424Z" transform="translate(-696.07 -215.973)"/></g></svg>