<?xml version="1.0" encoding="utf-8"?>
<!-- Generator: Adobe Illustrator 24.3.0, SVG Export Plug-In . SVG Version: 6.00 Build 0)  -->
<svg version="1.1" id="Buy_Illustration" xmlns="http://www.w3.org/2000/svg" xmlns:xlink="http://www.w3.org/1999/xlink" x="0px"
	 y="0px" viewBox="0 0 113.2 108.6" style="enable-background:new 0 0 113.2 108.6;" xml:space="preserve">
<style type="text/css">
	.st0{fill:#FBCD29;}
	.st1{fill:url(#Path_3699_1_);}
	.st2{fill:#FFFFFF;}
	.st3{fill:url(#Path_2255_1_);}
	.st4{fill:url(#Path_2256_1_);}
	.st5{fill:url(#Path_2257_1_);}
	.st6{fill:#FCEC2B;}
	.st7{fill:url(#Path_2259_1_);}
	.st8{fill:url(#Path_2260_1_);}
	.st9{fill:url(#Path_2261_1_);}
	.st10{fill:url(#Path_2262_1_);}
	.st11{fill:url(#Path_2265_1_);}
	.st12{fill:url(#Path_2266_1_);}
	.st13{fill:url(#Path_2267_1_);}
	.st14{fill:url(#Path_2268_1_);}
	.st15{fill:url(#Path_2269_1_);}
	.st16{fill:url(#Path_2270_1_);}
	.st17{opacity:0.6;fill:#020230;enable-background:new    ;}
	.st18{fill:url(#Path_9654_1_);}
	.st19{fill:url(#Path_9655_1_);}
	.st20{fill:#FFE7D7;}
	.st21{opacity:0.4;fill:#06033E;enable-background:new    ;}
	.st22{fill:url(#Path_9670_1_);}
	.st23{fill:url(#Path_9672_1_);}
	.st24{opacity:0.6;fill:#FF007A;enable-background:new    ;}
	.st25{fill:#371349;}
	.st26{fill:#8F3FAF;}
	.st27{opacity:0.7;fill:url(#Path_9677_1_);enable-background:new    ;}
	.st28{fill:url(#Path_9678_1_);}
	.st29{opacity:0.8;fill:#371349;enable-background:new    ;}
	.st30{opacity:0.8;}
	.st31{fill:url(#Path_5251_1_);}
	.st32{fill:url(#Path_5251-2_1_);}
	.st33{clip-path:url(#SVGID_2_);}
</style>
<g id="Group_10479" transform="translate(-699.924 -1126.632)">
	<path id="Path_9651" class="st0" d="M780.1,1204.2c-0.7,0-1.4-0.1-2-0.5l-15.9-9.2c-0.5-0.2-0.8-0.7-0.8-1.2
		c0.1-0.7,0.5-1.2,1.1-1.5l15.3-8.8c1.4-0.8,3.1-0.8,4.5-0.2l15.9,9.2c0.5,0.2,0.8,0.7,0.8,1.2c-0.1,0.7-0.5,1.2-1.1,1.5l-15.3,8.8
		C781.8,1204,781,1204.2,780.1,1204.2z M780.3,1182.6c-0.9,0-1.7,0.2-2.5,0.6l-15.3,8.8c-0.6,0.2-1,0.8-1,1.4c0,0.4,0.3,0.8,0.7,1
		l15.9,9.2c1.4,0.6,3,0.6,4.3-0.2l15.3-8.8c0.6-0.2,1-0.8,1-1.4c0-0.4-0.3-0.8-0.7-1l-15.9-9.2
		C781.6,1182.7,781,1182.5,780.3,1182.6L780.3,1182.6z"/>
	<g id="Group_10477">
		<g id="Group_10470" transform="translate(-7)">
			<g id="Group_10468" transform="translate(-418.332 609.209)">
				<g id="Group_7009">
					
						<linearGradient id="Path_3699_1_" gradientUnits="userSpaceOnUse" x1="1064.3307" y1="648.1383" x2="1064.2906" y2="648.8813" gradientTransform="matrix(40.5441 0 0 -82.1595 -41998.9336 53841.9609)">
						<stop  offset="0" style="stop-color:#D31197"/>
						<stop  offset="1" style="stop-color:#6900FF"/>
					</linearGradient>
					<path id="Path_3699" class="st1" d="M1134.6,538c-1.4,0.9-2.2,2.4-2.3,4l0.2,54.7c0,3.5,2.5,4.9,5.5,3.2l32.6-18.8
						c1.4-0.9,2.2-2.4,2.3-4l-0.2-54.7c0-3.5-2.5-4.9-5.5-3.2L1134.6,538z"/>
				</g>
				<g id="Group_7013">
					<g id="Group_7012">
						<g id="Group_7010" transform="translate(0.927 -1.336)">
							<path id="Path_3700" class="st2" d="M1139.5,559.5c-0.4,0.2-0.6,0.7-0.6,1.1l0,2.7c0,0.4,0.3,0.6,0.6,0.4l24.8-14.3
								c0.4-0.2,0.6-0.7,0.6-1.1l0-2.7c0-0.4-0.3-0.6-0.6-0.4L1139.5,559.5z"/>
						</g>
					</g>
					<path id="Path_3702" class="st2" d="M1149.9,571.5c-1,0.6-1.6,1.7-1.6,2.8v0.7c0,1,0.7,1.5,1.6,0.9l8.6-5
						c1-0.6,1.6-1.7,1.6-2.8v-0.7c0-1-0.7-1.5-1.6-0.9L1149.9,571.5z"/>
				</g>
			</g>
			<g id="Group_10469" transform="translate(-417.332 611.209)">
				<path id="Path_3707" class="st2" d="M1201.8,597.9c0.7,0.2,1.1,1,0.8,1.7c-0.1,0.4-0.4,0.7-0.8,0.8l-39.4,22.9
					c-1.3,0.7-2.9,0.7-4.3,0l-24.3-14c-0.7-0.2-1.1-1-0.8-1.7c0.1-0.4,0.4-0.7,0.8-0.8l39.4-22.9c1.3-0.7,2.9-0.7,4.3,0
					L1201.8,597.9z"/>
			</g>
		</g>
		<g id="Group_10478" transform="translate(-2188.201 708.246)">
			<g id="Group_6495" transform="translate(2954.921 469.12)">
				
					<linearGradient id="Path_2255_1_" gradientUnits="userSpaceOnUse" x1="-127.4966" y1="79.0974" x2="-126.4966" y2="79.0974" gradientTransform="matrix(27.399 0 0 -15.882 3493.2856 1265.1649)">
					<stop  offset="0" style="stop-color:#8513C8"/>
					<stop  offset="1.000000e-03" style="stop-color:#FF007A"/>
					<stop  offset="1" style="stop-color:#500D7F"/>
				</linearGradient>
				<path id="Path_2255" class="st3" d="M13.7,16.9L0,8.9L13.7,1l13.7,7.9L13.7,16.9z"/>
				<g id="Group_6494" transform="translate(0 7.94)">
					
						<linearGradient id="Path_2256_1_" gradientUnits="userSpaceOnUse" x1="-125.9842" y1="70.6385" x2="-124.0662" y2="71.3365" gradientTransform="matrix(13.7 0 0 -15.387 1728.8982 1102.8126)">
						<stop  offset="0" style="stop-color:#14002E"/>
						<stop  offset="1" style="stop-color:#6900FF"/>
					</linearGradient>
					<path id="Path_2256" class="st4" d="M13.7,8.9v7.4l13.7-8.5V1L13.7,8.9z"/>
					
						<linearGradient id="Path_2257_1_" gradientUnits="userSpaceOnUse" x1="-125.8356" y1="71.5025" x2="-123.8596" y2="70.8155" gradientTransform="matrix(13.7 0 0 -15.387 1715.1982 1102.8126)">
						<stop  offset="0" style="stop-color:#14002E"/>
						<stop  offset="1" style="stop-color:#6900FF"/>
					</linearGradient>
					<path id="Path_2257" class="st5" d="M0,1v7.9l13.7,7.4V8.9L0,1z"/>
				</g>
			</g>
			<g id="Group_6497" transform="translate(2953.432 473.486)">
				<g id="Group_6496" transform="translate(1.489 1.489)">
					<path id="Path_2258" class="st6" d="M13.7,11L0,3.1v-1L27.4,1v2.1L13.7,11z"/>
				</g>
			</g>
			<g id="Group_6499" transform="translate(2954.921 460.185)">
				
					<linearGradient id="Path_2259_1_" gradientUnits="userSpaceOnUse" x1="-127.4966" y1="88.0324" x2="-126.4966" y2="88.0324" gradientTransform="matrix(27.399 0 0 -15.882 3493.2856 1407.0718)">
					<stop  offset="1.000000e-03" style="stop-color:#8513C8"/>
					<stop  offset="1" style="stop-color:#500D7F"/>
				</linearGradient>
				<path id="Path_2259" class="st7" d="M13.7,16.9L0,8.9L13.7,1l13.7,7.9L13.7,16.9z"/>
				<g id="Group_6498" transform="translate(0 7.94)">
					
						<linearGradient id="Path_2260_1_" gradientUnits="userSpaceOnUse" x1="-125.9842" y1="79.5734" x2="-124.0662" y2="80.2715" gradientTransform="matrix(13.7 0 0 -15.387 1728.8982 1240.2954)">
						<stop  offset="0" style="stop-color:#14002E"/>
						<stop  offset="1" style="stop-color:#6900FF"/>
					</linearGradient>
					<path id="Path_2260" class="st8" d="M13.7,8.9v7.4l13.7-8.5V1L13.7,8.9z"/>
					
						<linearGradient id="Path_2261_1_" gradientUnits="userSpaceOnUse" x1="-125.8356" y1="80.4375" x2="-123.8596" y2="79.7505" gradientTransform="matrix(13.7 0 0 -15.387 1715.1982 1240.2954)">
						<stop  offset="0" style="stop-color:#14002E"/>
						<stop  offset="1" style="stop-color:#6900FF"/>
					</linearGradient>
					<path id="Path_2261" class="st9" d="M0,1v7.9l13.7,7.4V8.9L0,1z"/>
				</g>
			</g>
			<g id="Group_6505" transform="translate(2953.432 451.251)">
				
					<linearGradient id="Path_2262_1_" gradientUnits="userSpaceOnUse" x1="-126.0076" y1="96.9664" x2="-125.0076" y2="96.9664" gradientTransform="matrix(27.399 0 0 -15.882 3453.9771 1548.9614)">
					<stop  offset="1.000000e-03" style="stop-color:#8513C8"/>
					<stop  offset="1" style="stop-color:#500D7F"/>
				</linearGradient>
				<path id="Path_2262" class="st10" d="M15.2,16.9L1.5,8.9L15.2,1l13.7,7.9L15.2,16.9z"/>
				<g id="Group_6501" transform="translate(0 4.366)">
					
						<image style="overflow:visible;opacity:0.75;enable-background:new    ;" width="306" height="131" id="Rectangle_30435" xlink:href="EDA1ABF6D1EDAFD4.png"  transform="matrix(9.927125e-02 0 0 9.927125e-02 0 1.0002)">
					</image>
					<g id="Group_6500" transform="translate(1.489 1.489)">
						<path id="Path_2263" class="st6" d="M13.7,11L0,3.1v-1L27.4,1v2.1L13.7,11z"/>
					</g>
				</g>
				<g id="Group_6503" transform="translate(0 13.201)">
					<g id="Group_6502" transform="translate(1.489 1.489)">
						<path id="Path_2264" class="st6" d="M13.7,11L0,3.2V2.1L27.4,1v2.2L13.7,11z"/>
					</g>
				</g>
				<g id="Group_6504" transform="translate(1.489 7.94)">
					
						<linearGradient id="Path_2265_1_" gradientUnits="userSpaceOnUse" x1="-125.9842" y1="88.5074" x2="-124.0662" y2="89.2054" gradientTransform="matrix(13.7 0 0 -15.387 1728.8981 1377.764)">
						<stop  offset="0" style="stop-color:#14002E"/>
						<stop  offset="1" style="stop-color:#6900FF"/>
					</linearGradient>
					<path id="Path_2265" class="st11" d="M13.7,8.9v7.4l13.7-8.5V1L13.7,8.9z"/>
					
						<linearGradient id="Path_2266_1_" gradientUnits="userSpaceOnUse" x1="-125.8356" y1="89.3715" x2="-123.8596" y2="88.6844" gradientTransform="matrix(13.7 0 0 -15.387 1715.1981 1377.764)">
						<stop  offset="0" style="stop-color:#14002E"/>
						<stop  offset="1" style="stop-color:#6900FF"/>
					</linearGradient>
					<path id="Path_2266" class="st12" d="M0,1v7.9l13.7,7.4V8.9L0,1z"/>
				</g>
			</g>
			<g id="Group_6507" transform="translate(2954.921 442.316)">
				
					<linearGradient id="Path_2267_1_" gradientUnits="userSpaceOnUse" x1="-126.9966" y1="106.4014" x2="-126.9966" y2="105.3704" gradientTransform="matrix(27.399 0 0 -15.882 3493.2856 1690.8667)">
					<stop  offset="0" style="stop-color:#14002E"/>
					<stop  offset="1" style="stop-color:#6900FF"/>
				</linearGradient>
				<path id="Path_2267" class="st13" d="M13.7,16.9L0,8.9L13.7,1l13.7,7.9L13.7,16.9z"/>
				<g id="Group_6506" transform="translate(0 7.94)">
					
						<linearGradient id="Path_2268_1_" gradientUnits="userSpaceOnUse" x1="-125.9842" y1="97.4424" x2="-124.0662" y2="98.1404" gradientTransform="matrix(13.7 0 0 -15.387 1728.8982 1515.2461)">
						<stop  offset="0" style="stop-color:#14002E"/>
						<stop  offset="1" style="stop-color:#6900FF"/>
					</linearGradient>
					<path id="Path_2268" class="st14" d="M13.7,8.9v7.4l13.7-8.5V1L13.7,8.9z"/>
					
						<linearGradient id="Path_2269_1_" gradientUnits="userSpaceOnUse" x1="-125.8356" y1="98.3064" x2="-123.8596" y2="97.6194" gradientTransform="matrix(13.7 0 0 -15.387 1715.1982 1515.2461)">
						<stop  offset="0" style="stop-color:#14002E"/>
						<stop  offset="1" style="stop-color:#6900FF"/>
					</linearGradient>
					<path id="Path_2269" class="st15" d="M0,1v7.9l13.7,7.4V8.9L0,1z"/>
				</g>
			</g>
			<g id="Group_6510" transform="translate(2954.325 453.135)">
				<g id="Group_6509" transform="translate(1.389 1.443)">
					<g id="Group_6508" transform="translate(0 0)">
						
							<ellipse id="Ellipse_114" transform="matrix(0.7992 -0.6011 0.6011 0.7992 -0.7637 0.4974)" class="st2" cx="0.4" cy="1.4" rx="0.2" ry="0.3"/>
						
							<ellipse id="Ellipse_115" transform="matrix(0.7992 -0.6011 0.6011 0.7992 -0.8724 1.0282)" class="st2" cx="1.1" cy="1.8" rx="0.2" ry="0.3"/>
						
							<ellipse id="Ellipse_116" transform="matrix(0.7992 -0.6011 0.6011 0.7992 -0.9804 1.5588)" class="st2" cx="1.8" cy="2.2" rx="0.2" ry="0.3"/>
						
							<ellipse id="Ellipse_117" transform="matrix(0.7992 -0.6011 0.6011 0.7992 -1.0887 2.0888)" class="st2" cx="2.6" cy="2.7" rx="0.2" ry="0.3"/>
						
							<ellipse id="Ellipse_118" transform="matrix(0.7992 -0.6011 0.6011 0.7992 -1.1968 2.6194)" class="st2" cx="3.3" cy="3.1" rx="0.2" ry="0.3"/>
						
							<ellipse id="Ellipse_119" transform="matrix(0.7992 -0.6011 0.6011 0.7992 -1.3048 3.15)" class="st2" cx="4.1" cy="3.5" rx="0.2" ry="0.3"/>
						
							<ellipse id="Ellipse_120" transform="matrix(0.7992 -0.6011 0.6011 0.7992 -1.4129 3.6806)" class="st2" cx="4.8" cy="4" rx="0.2" ry="0.3"/>
						
							<ellipse id="Ellipse_121" transform="matrix(0.7992 -0.6011 0.6011 0.7992 -1.5211 4.2105)" class="st2" cx="5.5" cy="4.4" rx="0.2" ry="0.3"/>
						
							<ellipse id="Ellipse_122" transform="matrix(0.7992 -0.6011 0.6011 0.7992 -1.6292 4.7411)" class="st2" cx="6.3" cy="4.8" rx="0.2" ry="0.3"/>
						
							<ellipse id="Ellipse_123" transform="matrix(0.7992 -0.6011 0.6011 0.7992 -1.7376 5.2725)" class="st2" cx="7" cy="5.2" rx="0.2" ry="0.3"/>
						
							<ellipse id="Ellipse_124" transform="matrix(0.7992 -0.6011 0.6011 0.7992 -1.8459 5.8025)" class="st2" cx="7.8" cy="5.7" rx="0.2" ry="0.3"/>
						
							<ellipse id="Ellipse_125" transform="matrix(0.7992 -0.6011 0.6011 0.7992 -1.954 6.3331)" class="st2" cx="8.5" cy="6.1" rx="0.2" ry="0.3"/>
						
							<ellipse id="Ellipse_126" transform="matrix(0.7992 -0.6011 0.6011 0.7992 -2.0622 6.8631)" class="st2" cx="9.2" cy="6.5" rx="0.2" ry="0.3"/>
						
							<ellipse id="Ellipse_127" transform="matrix(0.7992 -0.6011 0.6011 0.7992 -2.1709 7.3939)" class="st2" cx="10" cy="6.9" rx="0.2" ry="0.3"/>
						
							<ellipse id="Ellipse_128" transform="matrix(0.7992 -0.6011 0.6011 0.7992 -2.2781 7.9249)" class="st2" cx="10.7" cy="7.4" rx="0.2" ry="0.3"/>
						
							<ellipse id="Ellipse_129" transform="matrix(0.7992 -0.6011 0.6011 0.7992 -2.3864 8.4548)" class="st2" cx="11.5" cy="7.8" rx="0.2" ry="0.3"/>
					</g>
				</g>
			</g>
			<g id="Group_6513" transform="translate(2954.325 462.268)">
				<g id="Group_6512" transform="translate(1.389 1.443)">
					<g id="Group_6511" transform="translate(0 0)">
						
							<ellipse id="Ellipse_130" transform="matrix(0.7992 -0.6011 0.6011 0.7992 -0.7637 0.4974)" class="st2" cx="0.4" cy="1.4" rx="0.2" ry="0.3"/>
						
							<ellipse id="Ellipse_131" transform="matrix(0.7992 -0.6011 0.6011 0.7992 -0.8724 1.0282)" class="st2" cx="1.1" cy="1.8" rx="0.2" ry="0.3"/>
						
							<ellipse id="Ellipse_132" transform="matrix(0.7992 -0.6011 0.6011 0.7992 -0.9804 1.5588)" class="st2" cx="1.8" cy="2.2" rx="0.2" ry="0.3"/>
						
							<ellipse id="Ellipse_133" transform="matrix(0.7992 -0.6011 0.6011 0.7992 -1.0887 2.0888)" class="st2" cx="2.6" cy="2.7" rx="0.2" ry="0.3"/>
						
							<ellipse id="Ellipse_134" transform="matrix(0.7992 -0.6011 0.6011 0.7992 -1.1968 2.6194)" class="st2" cx="3.3" cy="3.1" rx="0.2" ry="0.3"/>
						
							<ellipse id="Ellipse_135" transform="matrix(0.7992 -0.6011 0.6011 0.7992 -1.3048 3.15)" class="st2" cx="4.1" cy="3.5" rx="0.2" ry="0.3"/>
						
							<ellipse id="Ellipse_136" transform="matrix(0.7992 -0.6011 0.6011 0.7992 -1.4129 3.6806)" class="st2" cx="4.8" cy="4" rx="0.2" ry="0.3"/>
						
							<ellipse id="Ellipse_137" transform="matrix(0.7992 -0.6011 0.6011 0.7992 -1.5211 4.2105)" class="st2" cx="5.5" cy="4.4" rx="0.2" ry="0.3"/>
						
							<ellipse id="Ellipse_138" transform="matrix(0.7992 -0.6011 0.6011 0.7992 -1.6292 4.7411)" class="st2" cx="6.3" cy="4.8" rx="0.2" ry="0.3"/>
						
							<ellipse id="Ellipse_139" transform="matrix(0.7992 -0.6011 0.6011 0.7992 -1.7376 5.2725)" class="st2" cx="7" cy="5.2" rx="0.2" ry="0.3"/>
						
							<ellipse id="Ellipse_140" transform="matrix(0.7992 -0.6011 0.6011 0.7992 -1.8459 5.8025)" class="st2" cx="7.8" cy="5.7" rx="0.2" ry="0.3"/>
						
							<ellipse id="Ellipse_141" transform="matrix(0.7992 -0.6011 0.6011 0.7992 -1.954 6.3331)" class="st2" cx="8.5" cy="6.1" rx="0.2" ry="0.3"/>
						
							<ellipse id="Ellipse_142" transform="matrix(0.7992 -0.6011 0.6011 0.7992 -2.0622 6.8631)" class="st2" cx="9.2" cy="6.5" rx="0.2" ry="0.3"/>
						
							<ellipse id="Ellipse_143" transform="matrix(0.7992 -0.6011 0.6011 0.7992 -2.1709 7.3939)" class="st2" cx="10" cy="6.9" rx="0.2" ry="0.3"/>
						
							<ellipse id="Ellipse_144" transform="matrix(0.7992 -0.6011 0.6011 0.7992 -2.2781 7.9249)" class="st2" cx="10.7" cy="7.4" rx="0.2" ry="0.3"/>
						
							<ellipse id="Ellipse_145" transform="matrix(0.7992 -0.6011 0.6011 0.7992 -2.3864 8.4548)" class="st2" cx="11.5" cy="7.8" rx="0.2" ry="0.3"/>
					</g>
				</g>
			</g>
			<g id="Group_6516" transform="translate(2954.325 470.905)">
				<g id="Group_6515" transform="translate(1.389 1.443)">
					<g id="Group_6514" transform="translate(0 0)">
						
							<ellipse id="Ellipse_146" transform="matrix(0.7992 -0.6011 0.6011 0.7992 -0.7637 0.4974)" class="st2" cx="0.4" cy="1.4" rx="0.2" ry="0.3"/>
						
							<ellipse id="Ellipse_147" transform="matrix(0.7992 -0.6011 0.6011 0.7992 -0.8724 1.0282)" class="st2" cx="1.1" cy="1.8" rx="0.2" ry="0.3"/>
						
							<ellipse id="Ellipse_148" transform="matrix(0.7992 -0.6011 0.6011 0.7992 -0.9804 1.5588)" class="st2" cx="1.8" cy="2.2" rx="0.2" ry="0.3"/>
						
							<ellipse id="Ellipse_149" transform="matrix(0.7992 -0.6011 0.6011 0.7992 -1.0887 2.0888)" class="st2" cx="2.6" cy="2.7" rx="0.2" ry="0.3"/>
						
							<ellipse id="Ellipse_150" transform="matrix(0.7992 -0.6011 0.6011 0.7992 -1.1968 2.6194)" class="st2" cx="3.3" cy="3.1" rx="0.2" ry="0.3"/>
						
							<ellipse id="Ellipse_151" transform="matrix(0.7992 -0.6011 0.6011 0.7992 -1.3048 3.15)" class="st2" cx="4.1" cy="3.5" rx="0.2" ry="0.3"/>
						
							<ellipse id="Ellipse_152" transform="matrix(0.7992 -0.6011 0.6011 0.7992 -1.4129 3.6806)" class="st2" cx="4.8" cy="4" rx="0.2" ry="0.3"/>
						
							<ellipse id="Ellipse_153" transform="matrix(0.7992 -0.6011 0.6011 0.7992 -1.5211 4.2105)" class="st2" cx="5.5" cy="4.4" rx="0.2" ry="0.3"/>
						
							<ellipse id="Ellipse_154" transform="matrix(0.7992 -0.6011 0.6011 0.7992 -1.6292 4.7411)" class="st2" cx="6.3" cy="4.8" rx="0.2" ry="0.3"/>
						
							<ellipse id="Ellipse_155" transform="matrix(0.7992 -0.6011 0.6011 0.7992 -1.7376 5.2725)" class="st2" cx="7" cy="5.2" rx="0.2" ry="0.3"/>
						
							<ellipse id="Ellipse_156" transform="matrix(0.7992 -0.6011 0.6011 0.7992 -1.8459 5.8025)" class="st2" cx="7.8" cy="5.7" rx="0.2" ry="0.3"/>
						
							<ellipse id="Ellipse_157" transform="matrix(0.7992 -0.6011 0.6011 0.7992 -1.954 6.3331)" class="st2" cx="8.5" cy="6.1" rx="0.2" ry="0.3"/>
						
							<ellipse id="Ellipse_158" transform="matrix(0.7992 -0.6011 0.6011 0.7992 -2.0622 6.8631)" class="st2" cx="9.2" cy="6.5" rx="0.2" ry="0.3"/>
						
							<ellipse id="Ellipse_159" transform="matrix(0.7992 -0.6011 0.6011 0.7992 -2.1709 7.3939)" class="st2" cx="10" cy="6.9" rx="0.2" ry="0.3"/>
						
							<ellipse id="Ellipse_160" transform="matrix(0.7992 -0.6011 0.6011 0.7992 -2.2781 7.9249)" class="st2" cx="10.7" cy="7.4" rx="0.2" ry="0.3"/>
						
							<ellipse id="Ellipse_161" transform="matrix(0.7992 -0.6011 0.6011 0.7992 -2.3864 8.4548)" class="st2" cx="11.5" cy="7.8" rx="0.2" ry="0.3"/>
					</g>
				</g>
			</g>
			<g id="Group_6519" transform="translate(2954.325 479.74)">
				
					<image style="overflow:visible;opacity:0.75;enable-background:new    ;" width="147" height="102" id="Rectangle_30440" xlink:href="EDA1ABF6D1EDAFD5.png"  transform="matrix(9.927211e-02 0 0 9.927211e-02 0 1.0001)">
				</image>
				<g id="Group_6518" transform="translate(1.389 1.444)">
					<g id="Group_6517" transform="translate(0 0)">
						
							<ellipse id="Ellipse_162" transform="matrix(0.7992 -0.6011 0.6011 0.7992 -0.7637 0.4974)" class="st2" cx="0.4" cy="1.4" rx="0.2" ry="0.3"/>
						
							<ellipse id="Ellipse_163" transform="matrix(0.7992 -0.6011 0.6011 0.7992 -0.8724 1.0282)" class="st2" cx="1.1" cy="1.8" rx="0.2" ry="0.3"/>
						
							<ellipse id="Ellipse_164" transform="matrix(0.7992 -0.6011 0.6011 0.7992 -0.9804 1.5588)" class="st2" cx="1.8" cy="2.2" rx="0.2" ry="0.3"/>
						
							<ellipse id="Ellipse_165" transform="matrix(0.7992 -0.6011 0.6011 0.7992 -1.0887 2.0888)" class="st2" cx="2.6" cy="2.7" rx="0.2" ry="0.3"/>
						
							<ellipse id="Ellipse_166" transform="matrix(0.7992 -0.6011 0.6011 0.7992 -1.1968 2.6194)" class="st2" cx="3.3" cy="3.1" rx="0.2" ry="0.3"/>
						
							<ellipse id="Ellipse_167" transform="matrix(0.7992 -0.6011 0.6011 0.7992 -1.3048 3.15)" class="st2" cx="4.1" cy="3.5" rx="0.2" ry="0.3"/>
						
							<ellipse id="Ellipse_168" transform="matrix(0.7992 -0.6011 0.6011 0.7992 -1.4129 3.6806)" class="st2" cx="4.8" cy="4" rx="0.2" ry="0.3"/>
						
							<ellipse id="Ellipse_169" transform="matrix(0.7992 -0.6011 0.6011 0.7992 -1.5211 4.2105)" class="st2" cx="5.5" cy="4.4" rx="0.2" ry="0.3"/>
						
							<ellipse id="Ellipse_170" transform="matrix(0.7992 -0.6011 0.6011 0.7992 -1.6292 4.7411)" class="st2" cx="6.3" cy="4.8" rx="0.2" ry="0.3"/>
						
							<ellipse id="Ellipse_171" transform="matrix(0.7992 -0.6011 0.6011 0.7992 -1.7376 5.2725)" class="st2" cx="7" cy="5.2" rx="0.2" ry="0.3"/>
						
							<ellipse id="Ellipse_172" transform="matrix(0.7992 -0.6011 0.6011 0.7992 -1.8459 5.8025)" class="st2" cx="7.8" cy="5.7" rx="0.2" ry="0.3"/>
						
							<ellipse id="Ellipse_173" transform="matrix(0.7992 -0.6011 0.6011 0.7992 -1.954 6.3331)" class="st2" cx="8.5" cy="6.1" rx="0.2" ry="0.3"/>
						
							<ellipse id="Ellipse_174" transform="matrix(0.7992 -0.6011 0.6011 0.7992 -2.0622 6.8631)" class="st2" cx="9.2" cy="6.5" rx="0.2" ry="0.3"/>
						
							<ellipse id="Ellipse_175" transform="matrix(0.7992 -0.6011 0.6011 0.7992 -2.1709 7.3939)" class="st2" cx="10" cy="6.9" rx="0.2" ry="0.3"/>
						
							<ellipse id="Ellipse_176" transform="matrix(0.7992 -0.6011 0.6011 0.7992 -2.2781 7.9249)" class="st2" cx="10.7" cy="7.4" rx="0.2" ry="0.3"/>
						
							<ellipse id="Ellipse_177" transform="matrix(0.7992 -0.6011 0.6011 0.7992 -2.3864 8.4548)" class="st2" cx="11.5" cy="7.8" rx="0.2" ry="0.3"/>
					</g>
				</g>
			</g>
			<g id="Group_6532" transform="translate(2954.921 442.317)">
				
					<linearGradient id="Path_2270_1_" gradientUnits="userSpaceOnUse" x1="-127.0246" y1="105.9303" x2="-126.3006" y2="105.1563" gradientTransform="matrix(27.399 0 0 -15.881 3493.2856 1690.7433)">
					<stop  offset="1.000000e-03" style="stop-color:#8513C8"/>
					<stop  offset="1" style="stop-color:#500D7F"/>
				</linearGradient>
				<path id="Path_2270" class="st16" d="M13.7,16.9L13.7,16.9L0,8.9L13.7,1l0,0l13.7,7.9l-0.1,0L13.7,16.9z M0.2,8.9l13.5,7.8
					l13.5-7.8L13.7,1.1L0.2,8.9z"/>
			</g>
		</g>
	</g>
	<g id="Group_10481" transform="translate(757.653 1202.963)">
		<path id="Path_9652" class="st17" d="M8.3,22.1L36.3,6c0.8-0.4,1.8-0.4,2.7,0l16,9.2c0.4,0.1,0.7,0.6,0.5,1
			c-0.1,0.2-0.3,0.4-0.5,0.5L27,32.9c-0.8,0.4-1.8,0.4-2.7,0l-16-9.2c-0.4-0.1-0.7-0.6-0.5-1C7.9,22.4,8.1,22.2,8.3,22.1z"/>
		
			<radialGradient id="Path_9654_1_" cx="-126.6657" cy="72.2463" r="1.096" gradientTransform="matrix(27.5437 0 0 -27.5574 3124.8425 1508.3207)" gradientUnits="userSpaceOnUse">
			<stop  offset="0" style="stop-color:#E39A65"/>
			<stop  offset="0.474" style="stop-color:#A92FFB"/>
			<stop  offset="0.568" style="stop-color:#881BFA"/>
			<stop  offset="0.683" style="stop-color:#6507FA"/>
			<stop  offset="0.738" style="stop-color:#0D0C6F"/>
		</radialGradient>
		<path id="Path_9654" class="st18" d="M55.5,12.2v-0.5l-0.1,0.1c-0.1-0.2-0.3-0.3-0.4-0.4L39,2.2c-0.8-0.4-1.8-0.4-2.7,0L8.3,18.3
			c-0.2,0.1-0.3,0.2-0.4,0.3l-0.2-0.1V19c0,0.3,0.2,0.6,0.6,0.8l16,9.2c0.8,0.4,1.8,0.4,2.7,0L55,12.9
			C55.3,12.8,55.5,12.5,55.5,12.2L55.5,12.2L55.5,12.2L55.5,12.2L55.5,12.2z"/>
		
			<linearGradient id="Path_9655_1_" gradientUnits="userSpaceOnUse" x1="-118.9093" y1="54.6672" x2="-118.9093" y2="53.6672" gradientTransform="matrix(47.7388 0 0 -27.5564 5708.2397 1507.7477)">
			<stop  offset="0" style="stop-color:#D31197"/>
			<stop  offset="1" style="stop-color:#6900FF"/>
		</linearGradient>
		<path id="Path_9655" class="st19" d="M8.3,17.8L36.3,1.6c0.8-0.4,1.8-0.4,2.7,0l16,9.2c0.4,0.1,0.7,0.6,0.5,1
			c-0.1,0.2-0.3,0.4-0.5,0.5L27,28.5c-0.8,0.4-1.8,0.4-2.7,0l-16-9.2c-0.4-0.1-0.7-0.6-0.5-1C7.9,18,8.1,17.8,8.3,17.8z"/>
		<path id="Path_9656" class="st20" d="M55,12L27,28.1c-0.8,0.4-1.8,0.4-2.7,0l-16-9.2c-0.2-0.1-0.4-0.3-0.5-0.6
			c-0.1,0.3,0.1,0.7,0.5,1l16,9.2c0.8,0.4,1.8,0.4,2.7,0L55,12.4c0.5-0.3,0.6-0.6,0.5-1C55.4,11.7,55.2,11.9,55,12z"/>
		<path id="Path_9657" class="st6" d="M23.4,20.3l3-1.7c0.4-0.2,0.3-0.6-0.1-0.8l-1.7-1c-0.4-0.2-0.9-0.3-1.4-0.1l-3,1.7
			c-0.4,0.2-0.3,0.6,0.1,0.8l1.7,1C22.4,20.5,22.9,20.5,23.4,20.3z"/>
		<g id="Group_10482" transform="translate(24.573 9.73)">
			<path id="Path_9662" class="st21" d="M5.4,11.8c-0.2-0.1-0.4-0.1-0.6,0l-2.6,1.5L2,13.4l-1.9,1.1C0,14.5,0,14.6,0,14.7
				c0,0.1,0.1,0.1,0.1,0.1c0.2,0.1,0.4,0.1,0.6,0l1.9-1.1l0.2-0.1l2.6-1.5c0.1,0,0.1-0.1,0.1-0.2C5.5,11.8,5.5,11.8,5.4,11.8z"/>
			<path id="Path_9663" class="st21" d="M11.5,8.2c-0.2-0.1-0.4-0.1-0.6,0L8.3,9.7L8.1,9.8l-1.9,1.1c-0.1,0-0.1,0.1-0.1,0.2
				c0,0.1,0.1,0.1,0.1,0.1c0.2,0.1,0.4,0.1,0.6,0l1.9-1.1L8.9,10l2.6-1.5c0.1,0,0.1-0.1,0.1-0.2C11.6,8.2,11.6,8.2,11.5,8.2z"/>
			<path id="Path_9664" class="st21" d="M17.7,4.6c-0.2-0.1-0.4-0.1-0.6,0l-2.6,1.5l-0.2,0.1l-1.9,1.1c-0.1,0-0.1,0.1-0.1,0.2
				c0,0.1,0.1,0.1,0.1,0.1c0.2,0.1,0.4,0.1,0.6,0l1.9-1.1L15,6.5L17.7,5c0.1,0,0.2-0.1,0.2-0.2C17.8,4.7,17.8,4.6,17.7,4.6
				C17.7,4.6,17.7,4.6,17.7,4.6z"/>
			<path id="Path_9665" class="st21" d="M23.8,1.1c-0.2-0.1-0.4-0.1-0.6,0l-2.6,1.5l-0.2,0.1l-1.9,1.1c-0.1,0-0.1,0.1-0.1,0.2
				c0,0.1,0.1,0.1,0.1,0.1c0.2,0.1,0.4,0.1,0.6,0L20.9,3l0.2-0.1l2.6-1.5c0.1,0,0.1-0.1,0.1-0.2C23.9,1.1,23.8,1.1,23.8,1.1z"/>
		</g>
		<path id="Path_9666" class="st20" d="M36.7,5.7c-0.2-0.1-0.4-0.1-0.6,0l-1.3,0.8l-0.2,0.1l-1.9,1.1c-0.1,0-0.1,0.1-0.1,0.2
			C32.6,8,32.6,8,32.7,8c0.2,0.1,0.4,0.1,0.6,0L35.1,7l0.2-0.1l1.3-0.8c0.1,0,0.1-0.1,0.1-0.2C36.8,5.8,36.7,5.8,36.7,5.7z"/>
		<path id="Path_9667" class="st20" d="M32,8.5c-0.2-0.1-0.4-0.1-0.6,0l-1.3,0.8l-0.2,0.1l-0.2,0.1c-0.1,0-0.1,0.1-0.1,0.2
			c0,0.1,0.1,0.1,0.1,0.1c0.2,0.1,0.4,0.1,0.6,0l0.2-0.1l0.2-0.1L32,8.8c0.1,0,0.1-0.1,0.1-0.2C32.1,8.5,32.1,8.5,32,8.5z"/>
		<path id="Path_9668" class="st20" d="M27.6,25.7l1-0.6c0.1-0.1,0.1-0.2,0-0.2l0,0c-0.1-0.1-0.3-0.1-0.4,0l-1,0.6
			c-0.1,0.1-0.1,0.2,0,0.2l0,0C27.4,25.7,27.5,25.7,27.6,25.7z"/>
		<path id="Path_9669" class="st20" d="M29.2,24.8l0.4-0.2c0.1-0.1,0.1-0.2,0-0.2l0,0c-0.1-0.1-0.3-0.1-0.4,0l-0.4,0.2
			c-0.1,0.1-0.1,0.2,0,0.2l0,0C29,24.8,29.1,24.8,29.2,24.8z"/>
	</g>
</g>
<g id="Group_10483" transform="translate(244.185 -101.83) rotate(120)">
	<g id="Group_10484" transform="translate(217.967 73.962)">
		<g id="Group_10483-2" transform="translate(0 30.949)">
			
				<linearGradient id="Path_9670_1_" gradientUnits="userSpaceOnUse" x1="139.2239" y1="44.5276" x2="139.6698" y2="43.1139" gradientTransform="matrix(-13.6931 -13.4572 -23.7171 7.7695 2950.5056 1582.6035)">
				<stop  offset="0" style="stop-color:#5761D7"/>
				<stop  offset="4.000000e-02" style="stop-color:#5B65D8"/>
				<stop  offset="8.700000e-02" style="stop-color:#6A72DE"/>
				<stop  offset="0.137" style="stop-color:#8188E8"/>
				<stop  offset="0.19" style="stop-color:#A2A6F5"/>
				<stop  offset="0.224" style="stop-color:#BCBEFF"/>
			</linearGradient>
			<path id="Path_9670" class="st22" d="M0,2.4l0,2.1l0,0c0,0,0,0.1,0.1,0.1l23.2,13.1c0.1,0,0.2,0,0.3,0l3.7-2.2c0,0,0.1,0,0.1-0.1
				l0,0l0,0c0,0,0,0,0,0l0-2.1l-1.8,1.1L4.1,2.2c-0.1,0-0.2,0-0.3,0L2.6,2.9L0,2.4z"/>
			<path id="Path_9671" class="st2" d="M0,2.4l0,2.1l0,0c0,0,0,0.1,0.1,0.1l23.2,13.1c0.1,0,0.2,0,0.3,0l3.7-2.2c0,0,0.1,0,0.1-0.1
				l0,0l0,0c0,0,0,0,0,0l0-2.1l-1.8,1.1L4.1,2.2c-0.1,0-0.2,0-0.3,0L2.6,2.9L0,2.4z"/>
			
				<linearGradient id="Path_9672_1_" gradientUnits="userSpaceOnUse" x1="123.1495" y1="46.7148" x2="122.8525" y2="45.6928" gradientTransform="matrix(-13.6827 -13.4575 -23.6991 7.7697 2948.2812 1580.5081)">
				<stop  offset="0" style="stop-color:#C0BFF6"/>
				<stop  offset="0.294" style="stop-color:#C4C3F6"/>
				<stop  offset="0.64" style="stop-color:#D2D2F9"/>
				<stop  offset="1" style="stop-color:#E9E9FD"/>
			</linearGradient>
			<path id="Path_9672" class="st23" d="M4.1,0l23.2,13.1c0.1,0,0.1,0.1,0,0.2l-3.7,2.2c-0.1,0.1-0.2,0.1-0.3,0L0.1,2.4
				C0,2.4,0,2.3,0.1,2.3L3.8,0C3.9,0,4,0,4.1,0z"/>
			<path id="Path_9673" class="st2" d="M27.3,13.1L27.3,13.1l-3.8,2.2c-0.1,0.1-0.2,0.1-0.3,0L0.1,2.2l0,0C0,2.3,0,2.4,0.1,2.4
				l23.2,13.1c0.1,0,0.2,0,0.3,0l3.7-2.2C27.4,13.2,27.4,13.2,27.3,13.1z"/>
			<path id="Path_9674" class="st24" d="M5,3.2l18.2,10.1c0.1-0.7,0.3-1.5,0.6-2.2L5.6,0.9C5.3,1.6,5.1,2.4,5,3.2z"/>
			<path id="Path_9675" class="st25" d="M3.3,1.3l21.9,12.3c0.1,0,0,0.1,0,0.1l-0.9,0.6c-0.1,0-0.1,0-0.2,0L2.2,1.9
				c-0.1,0,0-0.1,0-0.1l0.9-0.6C3.2,1.2,3.3,1.2,3.3,1.3z"/>
			<path id="Path_9676" class="st26" d="M2.2,1.9l0.4,0.3l0.5-0.3c0.1,0,0.1,0,0.2,0L24.8,14l0.4-0.3c0.1,0,0.1-0.1,0-0.1L3.3,1.3
				c-0.1,0-0.1,0-0.2,0L2.2,1.8C2.1,1.9,2.1,1.9,2.2,1.9z"/>
		</g>
		
			<linearGradient id="Path_9677_1_" gradientUnits="userSpaceOnUse" x1="128.3965" y1="75.3712" x2="127.9245" y2="74.3522" gradientTransform="matrix(-26.973 -38.3329 -46.7186 22.1315 7251.6309 3693.9851)">
			<stop  offset="0" style="stop-color:#C0BFF6"/>
			<stop  offset="0.117" style="stop-color:#CFCFF8"/>
			<stop  offset="0.263" style="stop-color:#E9E9FD"/>
			<stop  offset="0.514" style="stop-color:#C0BFF6"/>
			<stop  offset="0.622" style="stop-color:#CFCFF8"/>
			<stop  offset="0.755" style="stop-color:#E9E9FD"/>
			<stop  offset="1" style="stop-color:#C0BFF6"/>
		</linearGradient>
		<path id="Path_9677" class="st27" d="M58.1,10.3L39.9,0l0,0c-0.2,3.6-2,6.9-5,8.9L10,23.6C6.5,25.9,4.3,29.8,4.1,34l0,0l18.2,10.3
			l0,0c0.2-4.2,2.4-8.1,5.9-10.4l24.9-14.7C56.1,17.1,57.9,13.8,58.1,10.3z"/>
		
			<linearGradient id="Path_9678_1_" gradientUnits="userSpaceOnUse" x1="139.1981" y1="74.1874" x2="139.1981" y2="75.1874" gradientTransform="matrix(-26.973 -38.3329 -46.7186 22.1315 7251.6309 3693.9851)">
			<stop  offset="0" style="stop-color:#14002E"/>
			<stop  offset="1" style="stop-color:#6900FF"/>
		</linearGradient>
		<path id="Path_9678" class="st28" d="M58.1,10.3L39.9,0l0,0c-0.2,3.6-2,6.9-5,8.9L10,23.6C6.5,25.9,4.3,29.8,4.1,34l0,0l18.2,10.3
			l0,0c0.2-4.2,2.4-8.1,5.9-10.4l24.9-14.7C56.1,17.1,57.9,13.8,58.1,10.3z"/>
		<path id="Path_9679" class="st29" d="M4.1,34l18.2,10.3c0-0.2,0-0.3,0-0.5l0,0L4.1,33.5C4.1,33.7,4.1,33.8,4.1,34z"/>
	</g>
	<g id="Group_10485" transform="translate(241.976 87.852)" class="st30">
		<path id="Path_9680" class="st2" d="M10.1,9.3l3.6,2l-0.3,0.2l-3.6-2L10.1,9.3z"/>
		<path id="Path_9681" class="st2" d="M8.3,8.3L9.6,9L9.2,9.2L7.9,8.5L8.3,8.3z"/>
		<path id="Path_9682" class="st2" d="M6.8,7.5L7.7,8L7.4,8.2L6.5,7.7L6.8,7.5z"/>
		<path id="Path_9683" class="st2" d="M12.5,9.8l2,1.1l-0.3,0.2l-2-1.1L12.5,9.8z"/>
		<path id="Path_9684" class="st2" d="M9.6,8.1L12,9.5l-0.3,0.2L9.2,8.3L9.6,8.1z"/>
		<path id="Path_9685" class="st2" d="M8.2,7.3L9,7.8L8.7,8L7.8,7.5L8.2,7.3z"/>
		<path id="Path_9686" class="st2" d="M6.8,6.6l0.9,0.5L7.3,7.3L6.5,6.8L6.8,6.6z"/>
		<path id="Path_9687" class="st2" d="M13.8,9.6l1.4,0.8l-0.3,0.2l-1.4-0.8L13.8,9.6z"/>
		<path id="Path_9688" class="st2" d="M12.8,9.1l0.5,0.3l-0.3,0.2l-0.5-0.3L12.8,9.1z"/>
		<path id="Path_9689" class="st2" d="M11.4,8.2l0.9,0.5l-0.3,0.2L11,8.4L11.4,8.2z"/>
		<path id="Path_9690" class="st2" d="M10.8,7L16,10l-0.3,0.2l-5.2-2.9L10.8,7z"/>
		<path id="Path_9691" class="st2" d="M9,6l1.3,0.7L9.9,6.9L8.6,6.2L9,6z"/>
		<path id="Path_9692" class="st2" d="M15.4,8.7l1.4,0.8l-0.3,0.2l-1.4-0.8L15.4,8.7z"/>
		<path id="Path_9693" class="st2" d="M12.1,6.8l2.8,1.6l-0.3,0.2L11.7,7L12.1,6.8z"/>
		<path id="Path_9694" class="st2" d="M10.7,6l0.9,0.5l-0.3,0.2l-0.9-0.5L10.7,6z"/>
		<path id="Path_9695" class="st2" d="M14.7,7.4L17.6,9l-0.3,0.2l-2.9-1.6L14.7,7.4z"/>
		<path id="Path_9696" class="st2" d="M12.1,5.9l2.1,1.2l-0.3,0.2l-2.1-1.2L12.1,5.9z"/>
		<path id="Path_9697" class="st2" d="M10.1,4.8l1.4,0.8l-0.3,0.2L9.8,5L10.1,4.8z"/>
		<path id="Path_9698" class="st2" d="M17.4,8l1,0.6L18,8.8l-1-0.6L17.4,8z"/>
		<path id="Path_9699" class="st2" d="M15.6,7l1.3,0.7l-0.3,0.2l-1.3-0.7L15.6,7z"/>
		<path id="Path_9700" class="st2" d="M12.9,5.5L15,6.7l-0.3,0.2l-2.1-1.2L12.9,5.5z"/>
		<path id="Path_9701" class="st2" d="M16.2,6.4l3,1.7l-0.3,0.2l-3-1.7L16.2,6.4z"/>
		<path id="Path_9702" class="st2" d="M12.8,4.5l2.8,1.6l-0.3,0.2l-2.8-1.6L12.8,4.5z"/>
		<path id="Path_9703" class="st2" d="M11.4,3.7l0.9,0.5l-0.3,0.2L11,3.9L11.4,3.7z"/>
		<path id="Path_9704" class="st2" d="M10,3l0.9,0.5l-0.3,0.2L9.7,3.2L10,3z"/>
		<path id="Path_9705" class="st2" d="M18.1,6.6l1.8,1l-0.3,0.2l-1.8-1L18.1,6.6z"/>
		<path id="Path_9706" class="st2" d="M2.8,5.2L0.3,3.8L0,4l2.5,1.4L2.8,5.2z"/>
		<path id="Path_9707" class="st2" d="M3.1,4.5l-2-1.1L0.8,3.6l2,1.1L3.1,4.5z"/>
		<path id="Path_9708" class="st2" d="M3.3,3.7L1.9,2.9L1.6,3.1L3,3.9L3.3,3.7z"/>
		<path id="Path_9709" class="st2" d="M4.7,3.6L2.7,2.4L2.3,2.6l2.1,1.2L4.7,3.6z"/>
		<path id="Path_9710" class="st2" d="M4.9,2.8L3.5,2L3.1,2.2L4.5,3L4.9,2.8z"/>
		<path id="Path_9711" class="st2" d="M6,2.5l-1.8-1L3.9,1.7l1.8,1L6,2.5z"/>
		<path id="Path_9712" class="st2" d="M6,1.6L5,1.1L4.7,1.3l1,0.6L6,1.6z"/>
		<path id="Path_9713" class="st2" d="M7.7,1.7L5.8,0.6L5.5,0.8l1.9,1.1L7.7,1.7z"/>
		<path id="Path_9714" class="st2" d="M8.4,1.1l-1.8-1L6.2,0.3l1.8,1L8.4,1.1z"/>
		<path id="Path_9715" class="st2" d="M16.8,5.9l0.8,0.4l-0.3,0.2l-0.8-0.4L16.8,5.9z"/>
		<path id="Path_9716" class="st2" d="M14.6,4.6l1.7,1l-0.3,0.2l-1.7-1L14.6,4.6z"/>
		<path id="Path_9717" class="st2" d="M16.7,1.1l2.9,1.6L19.2,3l-2.9-1.6L16.7,1.1z"/>
		<path id="Path_9718" class="st2" d="M14.7,0l1.1,0.6l-0.3,0.2l-1.1-0.6L14.7,0z"/>
	</g>
	<g id="Group_10486" transform="translate(234.438 94.75)" class="st30">
		<path id="Path_9719" class="st2" d="M10.1,6.9l3.6,2l-0.3,0.2l-3.6-2L10.1,6.9z"/>
		<path id="Path_9720" class="st2" d="M8.3,5.9l1.3,0.7L9.2,6.8L7.9,6.1L8.3,5.9z"/>
		<path id="Path_9721" class="st2" d="M6.8,5l0.9,0.5L7.4,5.7L6.5,5.2L6.8,5z"/>
		<path id="Path_9722" class="st2" d="M12.5,7.3l2,1.1l-0.3,0.2l-2-1.1L12.5,7.3z"/>
		<path id="Path_9723" class="st2" d="M9.6,5.7L12,7l-0.3,0.2L9.2,5.9L9.6,5.7z"/>
		<path id="Path_9724" class="st2" d="M8.2,4.9L9,5.4L8.7,5.6L7.8,5.1L8.2,4.9z"/>
		<path id="Path_9725" class="st2" d="M6.8,4.1l0.9,0.5L7.3,4.8L6.5,4.3L6.8,4.1z"/>
		<path id="Path_9726" class="st2" d="M13.8,7.2L15.3,8l-0.3,0.2l-1.4-0.8L13.8,7.2z"/>
		<path id="Path_9727" class="st2" d="M12.8,6.6l0.5,0.3L13,7.1l-0.5-0.3L12.8,6.6z"/>
		<path id="Path_9728" class="st2" d="M11.4,5.8l0.9,0.5l-0.3,0.2L11,6L11.4,5.8z"/>
		<path id="Path_9729" class="st2" d="M10.8,4.6L16,7.5l-0.3,0.2l-5.2-2.9L10.8,4.6z"/>
		<path id="Path_9730" class="st2" d="M9,3.5l1.3,0.7L9.9,4.5L8.6,3.7L9,3.5z"/>
		<path id="Path_9731" class="st2" d="M2.8,2.8L0.3,1.4L0,1.6L2.5,3L2.8,2.8z"/>
		<path id="Path_9732" class="st2" d="M3.1,2l-2-1.1L0.8,1.1l2,1.1L3.1,2z"/>
		<path id="Path_9733" class="st2" d="M3.3,1.3L1.9,0.5L1.6,0.7L3,1.5L3.3,1.3z"/>
		<path id="Path_9734" class="st2" d="M4.7,1.2L2.7,0L2.3,0.2l2.1,1.2L4.7,1.2z"/>
	</g>
</g>
<g id="Group_8818" transform="translate(-242.36 -2691.707)">
	<g id="Group_8816" transform="translate(322.437 2699.075)">
		
			<linearGradient id="Path_5251_1_" gradientUnits="userSpaceOnUse" x1="-134.1354" y1="122.8124" x2="-134.1354" y2="123.6084" gradientTransform="matrix(7.463 0 0 -28.944 1004.7834 3580.6123)">
			<stop  offset="0" style="stop-color:#6900FF"/>
			<stop  offset="1" style="stop-color:#6C3B8F;stop-opacity:0"/>
		</linearGradient>
		<path id="Path_5251" class="st31" d="M7.5,24.7V0H0v28.9L7.5,24.7z"/>
	</g>
	<g id="Group_8817" transform="translate(315.024 2704.726)">
		
			<linearGradient id="Path_5251-2_1_" gradientUnits="userSpaceOnUse" x1="-126.7427" y1="116.9601" x2="-126.7427" y2="117.7561" gradientTransform="matrix(7.481 0 0 -23.292 951.9026 2745.1057)">
			<stop  offset="0" style="stop-color:#6900FF"/>
			<stop  offset="1" style="stop-color:#6C3B8F;stop-opacity:0"/>
		</linearGradient>
		<path id="Path_5251-2" class="st32" d="M0,19V0h7.5v23.3L0,19z"/>
	</g>
</g>
<g id="Group_10487" transform="translate(23.675 13.162)">
	<g id="Group_8350" transform="translate(0 0)">
		<g id="Group_8349">
			<g>
				<defs>
					<polygon id="SVGID_1_" points="7.9,12.1 7.9,0 0,4.5 0.1,16.7 					"/>
				</defs>
				<clipPath id="SVGID_2_">
					<use xlink:href="#SVGID_1_"  style="overflow:visible;"/>
				</clipPath>
				<g id="Group_8348" class="st33">
					<g id="Group_8347" transform="translate(0.031 1.718)">
						<g id="Group_8346">
							<g id="Group_8345">
								<g id="Group_8344">
									<path id="Path_4763" class="st2" d="M3.9,0.5c0.5-0.3,1-0.5,1.5-0.5c0.4,0,0.9,0,1.2,0.3c0.4,0.2,0.7,0.6,0.8,1
										c0.2,0.5,0.3,1,0.3,1.6V6c0,0.1,0,0.1,0,0.2c0,0.1,0,0.1-0.1,0.2c0,0.1-0.1,0.1-0.1,0.2c0,0-0.1,0.1-0.1,0.1L7,7
										c0,0-0.1,0-0.1,0.1c0,0-0.1,0-0.1,0c0,0-0.1-0.1-0.1-0.1c0,0,0-0.1,0-0.2V4.5c0-0.1,0-0.1,0-0.2c0-0.1,0-0.1,0.1-0.2
										C6.7,4.1,6.8,4,6.8,4c0,0,0.1-0.1,0.1-0.1l0.2-0.1V3.2c0-0.5-0.1-0.9-0.3-1.3C6.8,1.6,6.6,1.3,6.3,1.1
										c-0.3-0.2-0.7-0.3-1-0.2c-0.5,0-0.9,0.2-1.3,0.4C3.5,1.6,3,1.9,2.7,2.3c-0.4,0.4-0.7,0.9-1,1.4c-0.3,0.5-0.5,1-0.7,1.6
										C0.8,5.9,0.7,6.4,0.7,7v0.5l0.2-0.1c0,0,0.1,0,0.2-0.1c0,0,0.1,0,0.1,0c0,0,0.1,0.1,0.1,0.1c0,0,0,0.1,0,0.2l0,2.2
										c0,0.1,0,0.1,0,0.2c0,0.1,0,0.1-0.1,0.2c0,0.1-0.1,0.1-0.1,0.2c0,0-0.1,0.1-0.1,0.1l-0.5,0.3c0,0-0.1,0-0.2,0.1
										c0,0-0.1,0-0.1,0c0,0-0.1-0.1-0.1-0.1c0,0,0-0.1,0-0.2l0-3.2C0,6.7,0.1,6,0.3,5.4c0.2-0.7,0.5-1.3,0.8-1.9
										c0.4-0.6,0.8-1.2,1.3-1.7C2.8,1.3,3.4,0.9,3.9,0.5"/>
									<path id="Path_4764" class="st2" d="M5,5.1l0.7-0.4v2.6L5,7.6L5,5.1"/>
									<path id="Path_4765" class="st2" d="M5,8.3L5.6,8v1.9L5,10.3L5,8.3"/>
									<path id="Path_4766" class="st2" d="M3.6,7.1l0.7-0.4l0,2.2L3.6,9.3L3.6,7.1"/>
									<path id="Path_4767" class="st2" d="M3.6,10l0.7-0.4v1.1l-0.7,0.4V10"/>
									<path id="Path_4768" class="st2" d="M3.6,11.8l0.7-0.4v1.1l-0.7,0.4L3.6,11.8"/>
									<path id="Path_4769" class="st2" d="M2.3,6.6l0.7-0.4l0,1.5L2.3,8.2L2.3,6.6"/>
									<path id="Path_4770" class="st2" d="M2.3,8.9l0.7-0.4l0,1.7l-0.7,0.4L2.3,8.9"/>
									<path id="Path_4771" class="st2" d="M2.3,11.3l0.7-0.4V12l-0.7,0.4L2.3,11.3"/>
								</g>
							</g>
						</g>
					</g>
				</g>
			</g>
		</g>
	</g>
</g>
</svg>
