<svg width="28" height="21" viewBox="0 0 28 21" fill="none" xmlns="http://www.w3.org/2000/svg">
<g clip-path="url(#clip0_106_54)">
<path d="M27.3814 3.27542C27.2208 2.64233 26.9075 2.06517 26.4728 1.6014C26.038 1.13763 25.4969 0.803438 24.9034 0.6321C22.7306 0 13.9856 0 13.9856 0C13.9856 0 5.2402 0.0191333 3.06735 0.651233C2.47383 0.822582 1.93275 1.15679 1.49798 1.62058C1.06321 2.08437 0.749941 2.66156 0.589354 3.29467C-0.0678805 7.41277 -0.322834 13.6878 0.607401 17.6412C0.768004 18.2743 1.08129 18.8514 1.51605 19.3152C1.95081 19.779 2.49189 20.1131 3.0854 20.2845C5.25824 20.9166 14.0034 20.9166 14.0034 20.9166C14.0034 20.9166 22.7485 20.9166 24.9212 20.2845C25.5148 20.1132 26.0559 19.779 26.4907 19.3152C26.9254 18.8514 27.2387 18.2743 27.3994 17.6412C28.0926 13.5172 28.3062 7.24617 27.3814 3.27553V3.27542Z" fill="#FF0000"/>
<path d="M11.2023 14.9403L18.4569 10.4582L11.2023 5.97607V14.9403Z" fill="white"/>
</g>
<defs>
<clipPath id="clip0_106_54">
<rect width="28" height="21" fill="white"/>
</clipPath>
</defs>
</svg>
