<svg width="29" height="27" viewBox="0 0 29 27" fill="none" xmlns="http://www.w3.org/2000/svg">
<path d="M18 4.00051C17.4696 4.00051 16.9609 4.21123 16.5858 4.5863C16.2107 4.96137 16 5.47008 16 6.00051C16 6.53095 16.2107 7.03966 16.5858 7.41473C16.9609 7.7898 17.4696 8.00051 18 8.00051C18.5304 8.00051 19.0391 7.7898 19.4142 7.41473C19.7893 7.03966 20 6.53095 20 6.00051C20 5.47008 19.7893 4.96137 19.4142 4.5863C19.0391 4.21123 18.5304 4.00051 18 4.00051ZM7 19.0005C6.73478 19.0005 6.48043 19.1059 6.29289 19.2934C6.10536 19.4809 6 19.7353 6 20.0005V22.0005C6 22.2657 6.10536 22.5201 6.29289 22.7076C6.48043 22.8952 6.73478 23.0005 7 23.0005H17C17.2652 23.0005 17.5196 22.8952 17.7071 22.7076C17.8946 22.5201 18 22.2657 18 22.0005V20.0005C18 19.7353 17.8946 19.4809 17.7071 19.2934C17.5196 19.1059 17.2652 19.0005 17 19.0005H7ZM9 22.0005C8.73478 22.0005 8.48043 21.8952 8.29289 21.7076C8.10536 21.5201 8 21.2657 8 21.0005C8 20.7353 8.10536 20.4809 8.29289 20.2934C8.48043 20.1059 8.73478 20.0005 9 20.0005C9.26522 20.0005 9.51957 20.1059 9.70711 20.2934C9.89464 20.4809 10 20.7353 10 21.0005C10 21.2657 9.89464 21.5201 9.70711 21.7076C9.51957 21.8952 9.26522 22.0005 9 22.0005ZM13 21.0005C13 20.7353 13.1054 20.4809 13.2929 20.2934C13.4804 20.1059 13.7348 20.0005 14 20.0005H15C15.2652 20.0005 15.5196 20.1059 15.7071 20.2934C15.8946 20.4809 16 20.7353 16 21.0005C16 21.2657 15.8946 21.5201 15.7071 21.7076C15.5196 21.8952 15.2652 22.0005 15 22.0005H14C13.7348 22.0005 13.4804 21.8952 13.2929 21.7076C13.1054 21.5201 13 21.2657 13 21.0005ZM5 6.00051C5 5.47008 5.21071 4.96137 5.58579 4.5863C5.96086 4.21123 6.46957 4.00051 7 4.00051C7.53043 4.00051 8.03914 4.21123 8.41421 4.5863C8.78929 4.96137 9 5.47008 9 6.00051C9 6.53095 8.78929 7.03966 8.41421 7.41473C8.03914 7.7898 7.53043 8.00051 7 8.00051C6.46957 8.00051 5.96086 7.7898 5.58579 7.41473C5.21071 7.03966 5 6.53095 5 6.00051Z" fill="white"/>
<path d="M18 0.000516415C16.8326 0.000296973 15.6905 0.340564 14.7136 0.979634C13.7367 1.6187 12.9675 2.52883 12.5 3.59852C12.1207 2.73035 11.5413 1.96432 10.8091 1.36311C10.0769 0.761906 9.21271 0.3426 8.28733 0.139506C7.36195 -0.0635872 6.40163 -0.0446968 5.48496 0.194632C4.56828 0.43396 3.7213 0.886925 3.0133 1.51646C2.30531 2.146 1.75643 2.93423 1.41158 3.81664C1.06672 4.69905 0.935693 5.65057 1.02921 6.59334C1.12272 7.53612 1.43813 8.44336 1.94961 9.24083C2.4611 10.0383 3.15413 10.7033 3.972 11.1815C3.39393 11.3925 2.89469 11.7761 2.54195 12.2804C2.18921 12.7846 2.00001 13.3851 2 14.0005V15.0005H1V14.5005C1 14.3679 0.947321 14.2407 0.853553 14.147C0.759785 14.0532 0.632608 14.0005 0.5 14.0005C0.367392 14.0005 0.240215 14.0532 0.146447 14.147C0.0526785 14.2407 0 14.3679 0 14.5005V19.5005C0 19.6331 0.0526785 19.7603 0.146447 19.8541C0.240215 19.9478 0.367392 20.0005 0.5 20.0005C0.632608 20.0005 0.759785 19.9478 0.853553 19.8541C0.947321 19.7603 1 19.6331 1 19.5005V18.0005H2V23.0005C2 23.7962 2.31607 24.5592 2.87868 25.1218C3.44129 25.6844 4.20435 26.0005 5 26.0005H19C19.7956 26.0005 20.5587 25.6844 21.1213 25.1218C21.6839 24.5592 22 23.7962 22 23.0005V22.8825C22 23.254 22.1035 23.6182 22.2988 23.9341C22.4942 24.2501 22.7737 24.5055 23.106 24.6715L26.106 26.1715C26.4109 26.3239 26.7497 26.3958 27.0902 26.3804C27.4308 26.365 27.7617 26.2629 28.0516 26.0836C28.3416 25.9044 28.5809 25.654 28.7469 25.3563C28.9129 25.0586 29 24.7234 29 24.3825V12.6185C29 12.2776 28.9129 11.9424 28.7469 11.6447C28.5809 11.347 28.3416 11.0966 28.0516 10.9174C27.7617 10.7382 27.4308 10.636 27.0902 10.6206C26.7497 10.6052 26.4109 10.6771 26.106 10.8295L23.106 12.3295C22.7734 12.4957 22.4937 12.7514 22.2983 13.0677C22.1029 13.3841 21.9996 13.7487 22 14.1205V14.0005C22 12.9115 21.42 11.9585 20.552 11.4325C21.7876 10.8529 22.7887 9.86931 23.39 8.64411C23.9914 7.41891 24.157 6.02532 23.8597 4.69329C23.5623 3.36127 22.8197 2.17042 21.7544 1.31727C20.6891 0.464122 19.3648 -0.000346192 18 0.000516415ZM14 6.00052C14 4.93965 14.4214 3.92223 15.1716 3.17209C15.9217 2.42194 16.9391 2.00052 18 2.00052C19.0609 2.00052 20.0783 2.42194 20.8284 3.17209C21.5786 3.92223 22 4.93965 22 6.00052C22 7.06138 21.5786 8.0788 20.8284 8.82894C20.0783 9.57909 19.0609 10.0005 18 10.0005C16.9391 10.0005 15.9217 9.57909 15.1716 8.82894C14.4214 8.0788 14 7.06138 14 6.00052ZM27 12.6185V24.3825L24 22.8825V14.1185L27 12.6185ZM5 13.0005H19C19.2652 13.0005 19.5196 13.1059 19.7071 13.2934C19.8946 13.4809 20 13.7353 20 14.0005V23.0005C20 23.2657 19.8946 23.5201 19.7071 23.7076C19.5196 23.8952 19.2652 24.0005 19 24.0005H5C4.73478 24.0005 4.48043 23.8952 4.29289 23.7076C4.10536 23.5201 4 23.2657 4 23.0005V14.0005C4 13.7353 4.10536 13.4809 4.29289 13.2934C4.48043 13.1059 4.73478 13.0005 5 13.0005ZM7 2.00052C8.06087 2.00052 9.07828 2.42194 9.82843 3.17209C10.5786 3.92223 11 4.93965 11 6.00052C11 7.06138 10.5786 8.0788 9.82843 8.82894C9.07828 9.57909 8.06087 10.0005 7 10.0005C5.93913 10.0005 4.92172 9.57909 4.17157 8.82894C3.42143 8.0788 3 7.06138 3 6.00052C3 4.93965 3.42143 3.92223 4.17157 3.17209C4.92172 2.42194 5.93913 2.00052 7 2.00052Z" fill="#F236AF"/>
</svg>
