<svg width="31" height="21" viewBox="0 0 31 21" fill="none" xmlns="http://www.w3.org/2000/svg">
<path d="M9.73787 21C21.4365 21 27.8361 12.9187 27.8361 5.9228C27.8361 5.69666 27.8361 5.46729 27.8244 5.24115C29.0704 4.4892 30.1457 3.55825 31 2.49191C29.8362 2.91972 28.6028 3.20168 27.3401 3.32863C28.6702 2.66578 29.6665 1.62283 30.1436 0.393637C28.8939 1.01088 27.5261 1.44418 26.1001 1.67457C25.1414 0.823345 23.8727 0.259434 22.4907 0.0701857C21.1086 -0.119063 19.6903 0.0769118 18.4553 0.627754C17.2204 1.1786 16.2378 2.05356 15.6597 3.11713C15.0817 4.18069 14.9404 5.37349 15.2578 6.51077C12.7289 6.40505 10.2548 5.85733 7.99615 4.90314C5.73746 3.94894 3.74458 2.60957 2.14675 0.971914C1.3356 2.13991 1.08805 3.5215 1.45438 4.83614C1.8207 6.15077 2.77344 7.29989 4.11912 8.05015C3.11073 8.02159 2.12451 7.79584 1.24 7.39111V7.4638C1.24174 8.68736 1.75016 9.87289 2.67932 10.82C3.60848 11.7671 4.90139 12.4177 6.3395 12.6618C5.79363 12.7872 5.22976 12.8497 4.66356 12.8476C4.26441 12.8486 3.86605 12.8178 3.47394 12.7555C3.8804 13.8088 4.67184 14.7297 5.73742 15.3892C6.80299 16.0488 8.08932 16.4139 9.41625 16.4336C7.16208 17.9096 4.37759 18.7102 1.51125 18.7063C1.00618 18.7081 0.50147 18.6838 0 18.6336C2.90918 20.1799 6.28776 21.0009 9.73787 21Z" fill="#0075FF"/>
</svg>
